# xmcd
#
# Track frame offsets:
# 150
# 20228
# 37628
# 54893
# 91525
# 116248
# 139870
# 160695
# 182270
# 207230
# 232083
# 253273
#
# Disc length: 3633 seconds
#
#
# Revision: 0
# Processed by: cddbd v1.5.1PL0 Copyright (c) Steve Scherf et al.
# Submitted via: FreeRIP 2.941 
#
DISCID=960e2f0c
DTITLE=Virgin Souls - Virgin Souls
DYEAR=1900
DGENRE=Trip-Hop
TTITLE0=Next Meal
TTITLE1=Extra Lyric
TTITLE2=Scarab
TTITLE3=162
TTITLE4=Millions
TTITLE5=Brittle
TTITLE6=Contents
TTITLE7=Personality
TTITLE8=Quil Est Temps
TTITLE9=Snakes and Ladders
TTITLE10=Keep The Faith
TTITLE11=Dennis
EXTD=
EXTT0=
EXTT1=
EXTT2=
EXTT3=
EXTT4=
EXTT5=
EXTT6=
EXTT7=
EXTT8=
EXTT9=
EXTT10=
EXTT11=
PLAYORDER=
